<svg width="16" height="17" viewBox="0 0 16 17" fill="none" xmlns="http://www.w3.org/2000/svg">
<path id="list-ul" d="M1.5 0.209564C1.20333 0.209564 0.913319 0.317313 0.666645 0.519185C0.419972 0.721057 0.227713 1.00799 0.114181 1.34369C0.000649929 1.67939 -0.0290551 2.04878 0.0288228 2.40516C0.0867006 2.76154 0.229562 3.08889 0.439341 3.34583C0.649119 3.60276 0.916394 3.77774 1.20737 3.84862C1.49834 3.91951 1.79994 3.88313 2.07403 3.74408C2.34811 3.60503 2.58238 3.36955 2.74721 3.06743C2.91203 2.7653 3 2.4101 3 2.04674C3 1.55949 2.84197 1.0922 2.56066 0.747662C2.27936 0.403124 1.89783 0.209564 1.5 0.209564ZM1.5 6.3335C1.20333 6.3335 0.913319 6.44125 0.666645 6.64312C0.419972 6.84499 0.227713 7.13192 0.114181 7.46762C0.000649929 7.80332 -0.0290551 8.17272 0.0288228 8.52909C0.0867006 8.88547 0.229562 9.21283 0.439341 9.46976C0.649119 9.72669 0.916394 9.90167 1.20737 9.97256C1.49834 10.0434 1.79994 10.0071 2.07403 9.86801C2.34811 9.72896 2.58238 9.49348 2.74721 9.19136C2.91203 8.88924 3 8.53404 3 8.17068C3 7.68343 2.84197 7.21613 2.56066 6.87159C2.27936 6.52706 1.89783 6.3335 1.5 6.3335ZM1.5 12.4574C1.20333 12.4574 0.913319 12.5652 0.666645 12.7671C0.419972 12.9689 0.227713 13.2559 0.114181 13.5916C0.000649929 13.9273 -0.0290551 14.2966 0.0288228 14.653C0.0867006 15.0094 0.229562 15.3368 0.439341 15.5937C0.649119 15.8506 0.916394 16.0256 1.20737 16.0965C1.49834 16.1674 1.79994 16.131 2.07403 15.9919C2.34811 15.8529 2.58238 15.6174 2.74721 15.3153C2.91203 15.0132 3 14.658 3 14.2946C3 13.8074 2.84197 13.3401 2.56066 12.9955C2.27936 12.651 1.89783 12.4574 1.5 12.4574ZM15.5 13.0698H5.5C5.36739 13.0698 5.24022 13.1343 5.14645 13.2492C5.05268 13.364 5 13.5198 5 13.6822V14.907C5 15.0694 5.05268 15.2252 5.14645 15.34C5.24022 15.4549 5.36739 15.5194 5.5 15.5194H15.5C15.6326 15.5194 15.7598 15.4549 15.8536 15.34C15.9473 15.2252 16 15.0694 16 14.907V13.6822C16 13.5198 15.9473 13.364 15.8536 13.2492C15.7598 13.1343 15.6326 13.0698 15.5 13.0698ZM15.5 0.821958H5.5C5.36739 0.821958 5.24022 0.886477 5.14645 1.00132C5.05268 1.11617 5 1.27193 5 1.43435V2.65914C5 2.82155 5.05268 2.97732 5.14645 3.09216C5.24022 3.20701 5.36739 3.27153 5.5 3.27153H15.5C15.6326 3.27153 15.7598 3.20701 15.8536 3.09216C15.9473 2.97732 16 2.82155 16 2.65914V1.43435C16 1.27193 15.9473 1.11617 15.8536 1.00132C15.7598 0.886477 15.6326 0.821958 15.5 0.821958ZM15.5 6.94589H5.5C5.36739 6.94589 5.24022 7.01041 5.14645 7.12526C5.05268 7.2401 5 7.39587 5 7.55828V8.78307C5 8.94549 5.05268 9.10125 5.14645 9.2161C5.24022 9.33095 5.36739 9.39546 5.5 9.39546H15.5C15.6326 9.39546 15.7598 9.33095 15.8536 9.2161C15.9473 9.10125 16 8.94549 16 8.78307V7.55828C16 7.39587 15.9473 7.2401 15.8536 7.12526C15.7598 7.01041 15.6326 6.94589 15.5 6.94589Z" fill="#7E7E7E"/>
</svg>
