<svg width="18" height="19" viewBox="0 0 18 19" fill="none" xmlns="http://www.w3.org/2000/svg">
<path id="store" d="M17.5914 4.43677L15.6947 0.812287C15.5252 0.486923 15.2242 0.287506 14.9027 0.287506H3.09613C2.77466 0.287506 2.47365 0.486923 2.30415 0.812287L0.407495 4.43677C-0.571518 6.30849 0.296443 8.9114 2.12588 9.20877C2.25739 9.22976 2.39182 9.24026 2.52625 9.24026C3.39129 9.24026 4.15697 8.78545 4.683 8.08225C5.20904 8.78545 5.97764 9.24026 6.83976 9.24026C7.70479 9.24026 8.47047 8.78545 8.99651 8.08225C9.52254 8.78545 10.2911 9.24026 11.1533 9.24026C12.0183 9.24026 12.784 8.78545 13.31 8.08225C13.839 8.78545 14.6046 9.24026 15.4668 9.24026C15.6041 9.24026 15.7356 9.22976 15.8671 9.20877C17.7024 8.9149 18.5733 6.31199 17.5914 4.43677ZM15.4726 10.3633C15.1804 10.3633 14.891 10.3108 14.6105 10.2303V13.7219H3.38837V10.2303C3.10782 10.3073 2.8185 10.3633 2.52625 10.3633C2.35091 10.3633 2.17264 10.3493 2.00022 10.3213C1.83656 10.2933 1.67583 10.2478 1.52094 10.1954V17.0805C1.52094 17.6997 1.93885 18.2 2.45612 18.2H15.5486C16.0659 18.2 16.4838 17.6997 16.4838 17.0805V10.1954C16.326 10.2513 16.1681 10.2968 16.0045 10.3213C15.8262 10.3493 15.6509 10.3633 15.4726 10.3633Z" fill="#9356DC"/>
</svg>
